<svg  xmlns="http://www.w3.org/2000/svg" xmlns:xlink="http://www.w3.org/1999/xlink" width="1590" height="100" viewBox="0 0 1614 124"><path transform="translate(0 100)" d="M9.1,-64.1L8.5,-63.9C8.8,-61 9.1,-56.6 9.1,-53.8L9.1,-29.8C9.1,-25.8 9,-22 8.7,-17.2C10.1,-17.2 12.5,-17.6 13.9,-18.4L13.9,-23.8L47.7,-23.8L47.7,-0.1C47.7,3.1 47.5,7.6 47.1,10.9C48.7,11 51.4,10.6 52.9,9.8C52.6,6.3 52.5,2.5 52.5,0.6L52.5,-23.8L86.5,-23.8L86.5,-18C87.7,-18 90.6,-18.8 91.7,-19.3C91.5,-24.1 91.3,-31.7 91.3,-33.2L91.3,-54.8L94.6,-56.9L94.6,-58.9L88.4,-63.4L84.8,-59.3L52.5,-59.3L52.5,-75.7L56.5,-77.1L56.5,-79.2L47.1,-80.6C47.4,-78.1 47.7,-73.6 47.7,-72.1L47.7,-59.3L14.4,-59.3L9.1,-64.1ZM86.5,-56.2L86.5,-26.9L52.5,-26.9L52.5,-56.2L86.5,-56.2ZM13.9,-56.2L47.7,-56.2L47.7,-26.9L13.9,-26.9L13.9,-56.2Z"></path><path transform="translate(100 100)" d="M4.3,11C23.9,6.5 39.9,0.2 51.3,-9.7C61,-0.4 72.5,5.6 88.6,10C90.3,7.4 92.6,6.6 96.3,7L97.1,3.7C81.3,1.8 66.4,-3.3 55,-13.3C65.6,-24.2 73.2,-40.9 76.2,-58.4L95.6,-58.4L96.3,-60.4L87.5,-67.9L82.3,-61.5L4.7,-61.5L4.7,-58.4L25.2,-58.4C29.7,-40.9 36.2,-26.3 47.8,-13.4C38.2,-4.6 20.2,3.2 3.5,7.8L4.3,11ZM29.5,-58.4L70.2,-58.4C67.6,-41.8 61.6,-28.4 51.2,-16.9C40.3,-28.2 33.3,-43.2 29.5,-58.4ZM40.5,-79.5C44.5,-75.6 48.2,-71 49.7,-66.8C50.8,-64.1 51.7,-63.1 53.5,-63.6C55.4,-64.2 56,-68.7 54.3,-71.1C51.3,-75.5 47.7,-78.3 42.1,-81.1L40.5,-79.5Z"></path><path transform="translate(200 100)" d="M10.6,-4.9C10.6,-1.5 10.4,3.5 10,11.4C11.4,11.5 13.5,11.3 15.2,10.8L15.2,-69.5L85,-69.5L85,2.2C85,5 82.7,5.8 69.4,2.9L69,5.1C77.1,6.8 79.3,8.5 79.7,11.2C88.7,9.3 90,7.7 89.8,3C89.7,0.2 89.6,-3.2 89.6,-5.8L89.6,-68.1L93,-70.3L93,-72.2L86.5,-76.7L83.6,-72.4L15.5,-72.4L10.6,-76.6L10,-76.3C10.3,-73.1 10.6,-70 10.6,-65.8L10.6,-4.9ZM48.8,-52.5C54.1,-45.1 58.9,-37.9 63.4,-30.5C59.3,-21.3 53.8,-11.8 47.3,-2.8L49.5,-1C56.1,-9 61.6,-17.5 66,-26.3C69.1,-20.9 72,-15.2 74.9,-9.4C76.4,-6.6 77.6,-5.7 79,-6.6C80.6,-7.5 81,-10.2 79.2,-13.6C76.3,-19 72.7,-25.1 68.4,-31.4C72.1,-39.6 74.8,-47.8 76.7,-55.7L80.1,-56.3L80.3,-58.2L72.2,-61.4C72.1,-58.7 71.7,-55.7 71.1,-53.5C69.9,-47.8 68.1,-41.8 65.5,-35.5C61.1,-41.7 56.1,-48 50.8,-54.3L48.8,-52.5ZM18.3,-56C23.5,-48.1 28.1,-40.6 32.3,-33.2C28.5,-23.7 23.5,-14.2 17.3,-5.2L19.6,-3.6C26.1,-12.2 30.9,-20.2 34.8,-28.8C37.3,-24.2 39.6,-19.6 41.8,-15C43.1,-12.4 44,-11.3 45.4,-11.9C47.3,-12.7 47.7,-15.8 45.8,-19.3C43.3,-24 40.4,-29 37.1,-34.2C39.7,-40.9 41.9,-48.2 44,-56.4L47.6,-57.3L47.8,-59.1L39.5,-61.8C39.5,-59.3 39.2,-56.4 38.8,-54.3C37.7,-49.1 36.2,-43.7 34.3,-38.4C30.2,-44.7 25.5,-51.1 20.5,-57.7L18.3,-56Z"></path><path transform="translate(300 100)" d="M3.3,-21.8L3.3,-18.7L46.7,-18.7L46.7,2.2C46.7,6.1 45.9,6.5 30.6,4.6L30.4,7.1C40.1,8.4 42,9.5 42.3,11.6C50.5,10.4 52.3,8.3 51.9,4.2C51.7,1.9 51.5,-2.3 51.5,-4.6L51.5,-18.7L96.6,-18.7L97.3,-20.6L89.4,-27.6L85,-21.8L51.5,-21.8L51.5,-30.3L69,-42.7C70.5,-43.7 72.9,-44.3 75.2,-44.2L76.5,-46.1L69.2,-53.3L65.2,-48.8L19.9,-48.8L19.9,-45.7L64.4,-45.7L51,-33.2L46.9,-35.8L46.3,-35.5C46.5,-31.8 46.7,-28.4 46.7,-25.8L46.7,-21.8L3.3,-21.8ZM14.8,-71.3C12.7,-63.7 9.7,-58.6 6.3,-55.3C4.1,-53.1 4.2,-50.5 5.8,-49.6C7.4,-48.7 9.3,-49.4 11.3,-52.2C13.3,-55.1 14.8,-58.6 15.7,-63L84.4,-63L79.9,-52.9L81.8,-51.8L88.4,-59.1C89.9,-60.8 92.3,-61.7 94.8,-61.6L96,-63.9L87.8,-71L84,-66.1L16.3,-66.1C16.5,-67.6 16.7,-69.1 16.9,-70.8L14.8,-71.3ZM41.5,-80.6C44.5,-77.1 46.9,-73.3 48.2,-69.5C49.2,-66.9 51.2,-66.5 52.4,-67.3C54,-68.9 53.7,-71.6 52.1,-74C50.3,-76.6 46.8,-79.6 43.2,-82.1L41.5,-80.6Z"></path><path transform="translate(400 100)" d="M84.9,-46.9L66.3,-46.9L66.3,-75.9L70.1,-76.8L70.1,-78.9L61.1,-80.8C61.4,-77.1 61.5,-74.8 61.5,-72.3L61.5,-46.9L32.8,-46.9L32.8,-43.7L61.5,-43.7L61.5,-0.2C61.5,2.9 61.3,7.4 61.1,10.7C62.6,10.8 65.3,10.3 66.6,9.6C66.4,6.1 66.3,2.3 66.3,0.4L66.3,-43.7L96.6,-43.7L97.1,-45.6L89.5,-52.8L84.9,-46.9ZM20,-55L17.4,-49.6L3,-49.6L3,-46.8L18.7,-46.8L18.7,-3.9C18.7,-1.2 17.5,0.7 14.5,2.5L18.8,9.3L20.3,8.8L20.7,5.9L45.6,-14.4L44.2,-16.6L23.3,-2.7L23.3,-45.9L26.6,-48L26.6,-50L20,-55ZM9.1,-77.6C13.3,-73.5 16.9,-69.1 19.4,-64.4C20.8,-61.7 23,-60.9 24.3,-62.1C25.8,-63.8 25.6,-66.6 23.5,-69.1C20.4,-72.5 15.6,-76.1 10.4,-79.2L9.1,-77.6Z"></path><path transform="translate(500 100)" d="M47.7,-42.6C47,-40.5 45.6,-37.4 43.8,-34.5C40,-28.2 35.7,-22.7 30.7,-17.5C30.1,-19.1 29.5,-20.6 29,-22.3C26.6,-30.2 25.1,-38.5 24.2,-47.2L56.4,-52.7L56.8,-54.3L47.8,-60.3L44.3,-53.8L24,-50.3C23.5,-55.8 23.4,-61.4 23.4,-67.2L23.4,-75.7L26.9,-77L26.9,-78.9L18.3,-80.8C18.7,-77.2 19,-69.5 19,-67C19.1,-60.5 19.3,-54.8 19.7,-49.6L0.9,-46.3L1.5,-43.3L20,-46.4C20.8,-37.2 22.4,-29.1 25.1,-19.6C25.6,-17.7 26.3,-15.9 27.2,-14.1C19.9,-7.2 11.5,-1.1 1.9,4.6L3.6,7.6C13.4,2.3 21.9,-3.4 29.3,-10C32.9,-4 38,1.5 43.4,4.9C48.7,8.3 54.4,10.2 59,10.9C61,11.2 61.8,8.7 60.3,7.2C59,5.9 58.2,2.5 58.4,0.4C58.8,-4.5 59.6,-10.2 60.2,-14.5L57.9,-14.8C56.8,-10.1 55.4,-4.2 54.1,0.7C53.6,2.6 52,3.3 50.4,2.6C43.6,0.3 37.2,-4.9 32.7,-13.2C39.6,-19.8 45.5,-27.2 50.8,-35.7L54.9,-35.7L55.7,-37.7L47.7,-42.6ZM69.4,4.9C75.7,6.2 79.8,8.4 80.1,11.1C90.2,10.1 91.7,7 91.5,2.8C91.3,-2.9 91.2,-6.7 91.2,-9.3L91.2,-73.4L94.6,-74.9L94.6,-76.9L86.4,-79.6C86.7,-75.4 86.8,-72.8 86.8,-70.5L86.8,1.6C86.8,4.8 85.3,5.5 69.4,2.6L69.4,4.9ZM67.2,-70C67.5,-67.8 67.8,-63.5 67.8,-60.5L67.8,-24.2C67.8,-21.8 67.7,-18.3 67.4,-12.5C69.1,-12.4 71.3,-12.7 72.7,-13.2C72.5,-17.7 72.2,-22.7 72.2,-25.6L72.2,-64.1L75.8,-66L75.8,-67.7L67.2,-70ZM31.4,-73.3C35.7,-70.6 38.6,-68.1 41.8,-64.6C44.6,-61.7 46.1,-61.6 46.9,-62.7C48.1,-64.4 47.8,-67 45.2,-69C41.3,-71.8 36.8,-73.9 32.4,-75.4L31.4,-73.3Z"></path><path transform="translate(600 100)" d=""></path><path transform="translate(628 100)" d="M29.4,-65.8L29.4,-4.4L16.8,-4.4L16.8,-1.3L48.1,-1.3L48.1,-4.4L35.4,-4.4L35.4,-65.8L56.3,-65.8L56.3,-48.6L61.9,-48.6L61.9,-68.9L3.2,-68.9L3.2,-48.6L8.7,-48.6L8.7,-65.8L29.4,-65.8Z"></path><path transform="translate(696 100)" d="M0.7,-4.4L0.7,-1.3L23.7,-1.3L23.7,-4.4L15.2,-4.4L15.2,-29C15.2,-41 21,-48.1 29.6,-48.1C37.9,-48.1 42.1,-43.1 42.1,-33.2L42.1,-4.4L32.8,-4.4L32.8,-1.3L55.8,-1.3L55.8,-4.4L48,-4.4L48,-33.2C48,-45.6 43.2,-51 31.4,-51C24.1,-51 18.9,-48.2 15.2,-42.5L15.2,-68.9L0.7,-68.9L0.7,-65.8L9.2,-65.8L9.2,-4.4L0.7,-4.4Z"></path><path transform="translate(754 100)" d="M42.1,-15C40.4,-6.2 34.6,-2.8 26.3,-2.8C14.4,-2.8 8.8,-13 8.5,-25.1L48.8,-25.1C48.8,-38.6 42.5,-51.2 26.3,-51.2C10.1,-51.2 2.4,-40.5 2.4,-25.6C2.4,-10.8 10.1,-0.1 26.3,-0.1C37.6,-0.1 45.5,-4.7 47.6,-15L42.1,-15ZM8.5,-28.2C8.7,-38.7 15.7,-48.4 25.4,-48.4C36.6,-48.4 42.4,-39.6 42.7,-28.2L8.5,-28.2Z"></path><path transform="translate(807 100)" d=""></path><path transform="translate(835 100)" d="M0.1,-4.4L0.1,-1.3L29.6,-1.3L29.6,-4.4L16.6,-4.4L16.6,-30.7L31,-30.7C47.6,-30.7 55.1,-38.1 55.1,-50.4C55.1,-61.2 46.5,-68.9 32.6,-68.9L0.1,-68.9L0.1,-65.8L10.6,-65.8L10.6,-4.4L0.1,-4.4ZM16.6,-33.9L16.6,-65.8L30.5,-65.8C42.9,-65.8 48.5,-60.2 48.5,-50.3C48.5,-39.3 42.4,-33.9 31.2,-33.9L16.6,-33.9Z"></path><path transform="translate(893 100)" d="M2.9,-4.4L2.9,-1.3L28.1,-1.3L28.1,-4.4L17.6,-4.4L17.6,-29.2C17.6,-39.9 22.5,-47.6 32.6,-47.6L35.4,-47.6L35.4,-51.2C34.4,-51.4 34,-51.4 33.5,-51.4L32.2,-51.4C26,-51.4 20.9,-48.1 17.6,-42.4L17.6,-50L2.9,-50L2.9,-47L11.4,-47L11.4,-4.4L2.9,-4.4Z"></path><path transform="translate(932 100)" d="M28.4,-51.2C13.6,-51.2 4.6,-40.5 4.6,-25.6C4.6,-10.8 13.6,-0.1 28.4,-0.1C43,-0.1 52.1,-10.8 52.1,-25.6C52.1,-40.5 44.5,-51.2 28.4,-51.2ZM28.4,-2.7C16.5,-2.7 10.6,-13.1 10.6,-25.6C10.6,-40.3 18.7,-48.4 28.4,-48.4C39.9,-48.4 46.1,-38.1 46.1,-25.6C46.1,-11 38.1,-2.7 28.4,-2.7Z"></path><path transform="translate(991 100)" d="M2.6,15.2C3.6,15.5 5.3,16.1 6.8,16.1C16.7,16.1 19.7,12.4 19.7,5.6L19.7,-49.5L4.5,-49.5L4.5,-46.4L14.9,-46.4L14.9,3.3C14.9,9.9 13.3,12.9 6.3,12.9C4.9,12.9 3.7,12.8 2.6,12.5L2.6,15.2ZM13.1,-66.7L13.1,-59.4L20.4,-59.4L20.4,-66.7L13.1,-66.7Z"></path><path transform="translate(1015 100)" d="M42.1,-15C40.4,-6.2 34.6,-2.8 26.3,-2.8C14.4,-2.8 8.8,-13 8.5,-25.1L48.8,-25.1C48.8,-38.6 42.5,-51.2 26.3,-51.2C10.1,-51.2 2.4,-40.5 2.4,-25.6C2.4,-10.8 10.1,-0.1 26.3,-0.1C37.6,-0.1 45.5,-4.7 47.6,-15L42.1,-15ZM8.5,-28.2C8.7,-38.7 15.7,-48.4 25.4,-48.4C36.6,-48.4 42.4,-39.6 42.7,-28.2L8.5,-28.2Z"></path><path transform="translate(1068 100)" d="M40.7,-15.6C39.2,-7.2 34.3,-2.7 26.1,-2.7C14.4,-2.7 8.4,-13.1 8.4,-25.6C8.4,-38.1 14.4,-48.4 26.1,-48.4C35.1,-48.4 40.3,-43.6 41.4,-32.5L46.3,-32.5L46.3,-50L41.5,-50L41.5,-43.1C38.6,-48.6 32.9,-51.2 26.1,-51.2C9.9,-51.2 2.4,-40.5 2.4,-25.6C2.4,-10.8 9.9,-0.1 26.1,-0.1C36.9,-0.1 45.1,-6 46.2,-15.6L40.7,-15.6Z"></path><path transform="translate(1119 100)" d="M12.2,-60.1L12.2,-49.8L2.2,-49.8L2.2,-46.8L12.2,-46.8L12.2,-10.5C12.2,-3.4 15.3,-0.1 23.1,-0.1C30.6,-0.1 35,-4.9 35,-12.1L35,-13.4L30.3,-13.4L30.3,-12.8C30.3,-6.2 27.9,-2.7 23.7,-2.7C20.5,-2.7 18.2,-6 18.2,-12L18.2,-46.8L33.3,-46.8L33.3,-49.8L18.2,-49.8L18.2,-62.4L12.2,-60.1Z"></path><path transform="translate(1158 100)" d=""></path><path transform="translate(1186 100)" d="M2.8,-4.4L2.8,-1.3L32.3,-1.3L32.3,-4.4L19.1,-4.4L19.1,-33.4L37,-33.4L37,-21.7L42.4,-21.7L42.4,-47.3L37,-47.3L37,-36.6L19.1,-36.6L19.1,-65.8L51.7,-65.8L51.7,-49L57.3,-49L57.3,-68.9L2.8,-68.9L2.8,-65.8L13.3,-65.8L13.3,-4.4L2.8,-4.4Z"></path><path transform="translate(1248 100)" d="M28.4,-51.2C13.6,-51.2 4.6,-40.5 4.6,-25.6C4.6,-10.8 13.6,-0.1 28.4,-0.1C43,-0.1 52.1,-10.8 52.1,-25.6C52.1,-40.5 44.5,-51.2 28.4,-51.2ZM28.4,-2.7C16.5,-2.7 10.6,-13.1 10.6,-25.6C10.6,-40.3 18.7,-48.4 28.4,-48.4C39.9,-48.4 46.1,-38.1 46.1,-25.6C46.1,-11 38.1,-2.7 28.4,-2.7Z"></path><path transform="translate(1307 100)" d="M2.9,-4.4L2.9,-1.3L28.1,-1.3L28.1,-4.4L17.6,-4.4L17.6,-29.2C17.6,-39.9 22.5,-47.6 32.6,-47.6L35.4,-47.6L35.4,-51.2C34.4,-51.4 34,-51.4 33.5,-51.4L32.2,-51.4C26,-51.4 20.9,-48.1 17.6,-42.4L17.6,-50L2.9,-50L2.9,-47L11.4,-47L11.4,-4.4L2.9,-4.4Z"></path><path transform="translate(1346 100)" d=""></path><path transform="translate(1374 100)" d="M24.3,-1.3L32.8,-1.3L50.3,-61.5L67.7,-1.3L76.1,-1.3L92.3,-65.8L98.2,-65.8L98.2,-68.9L75,-68.9L75,-65.8L86.4,-65.8L71.9,-6.5L54.2,-67.4L46.5,-67.4L28.7,-6.4L14.3,-65.8L26.4,-65.8L26.4,-68.9L2.4,-68.9L2.4,-65.8L8.5,-65.8L24.3,-1.3Z"></path><path transform="translate(1479 100)" d="M42.1,-15C40.4,-6.2 34.6,-2.8 26.3,-2.8C14.4,-2.8 8.8,-13 8.5,-25.1L48.8,-25.1C48.8,-38.6 42.5,-51.2 26.3,-51.2C10.1,-51.2 2.4,-40.5 2.4,-25.6C2.4,-10.8 10.1,-0.1 26.3,-0.1C37.6,-0.1 45.5,-4.7 47.6,-15L42.1,-15ZM8.5,-28.2C8.7,-38.7 15.7,-48.4 25.4,-48.4C36.6,-48.4 42.4,-39.6 42.7,-28.2L8.5,-28.2Z"></path><path transform="translate(1532 100)" d="M1.2,-4.4L1.2,-1.3L14.5,-1.3L14.5,-9C18.2,-2.8 23.5,-0.1 32.6,-0.1C41.7,-0.1 54.6,-4.7 54.6,-25.4C54.6,-40.3 46.6,-51 32.6,-51C24,-50.9 18.3,-48 14.5,-41.9L14.5,-68.9L1.2,-68.9L1.2,-65.8L8.6,-65.8L8.6,-4.4L1.2,-4.4ZM30.8,-48.1C42.5,-48.1 48.5,-37.8 48.5,-25.4C48.5,-13 42.5,-2.7 30.8,-2.7C18.4,-2.7 14,-14.4 14,-26.4C14,-43.1 23.5,-48.1 30.8,-48.1Z"></path></svg>