<svg class="w-full h-auto" width="800" height="400" xmlns="http://www.w3.org/2000/svg" xmlns:xlink="http://www.w3.org/1999/xlink" version="1.1" baseProfile="full" viewBox="0 0 800 400">
<rect width="800" height="400" x="0" y="0" fill="none"></rect>
<path d="M120 320.5L720 320.5" fill="none" pointer-events="visible" stroke="#888888" stroke-opacity="0.2" class="zr0-cls-0"></path>
<path d="M120 269.5L720 269.5" fill="none" pointer-events="visible" stroke="#888888" stroke-opacity="0.2" class="zr0-cls-0"></path>
<path d="M120 218.5L720 218.5" fill="none" pointer-events="visible" stroke="#888888" stroke-opacity="0.2" class="zr0-cls-0"></path>
<path d="M120 167.5L720 167.5" fill="none" pointer-events="visible" stroke="#888888" stroke-opacity="0.2" class="zr0-cls-0"></path>
<path d="M120 116.5L720 116.5" fill="none" pointer-events="visible" stroke="#888888" stroke-opacity="0.2" class="zr0-cls-0"></path>
<path d="M120 65.5L720 65.5" fill="none" pointer-events="visible" stroke="#888888" stroke-opacity="0.2" class="zr0-cls-0"></path>
<text dominant-baseline="central" text-anchor="middle" style="font-size:12px;font-family:sans-serif;" y="-6" transform="translate(120 50)" fill="#888888">Commands</text>
<path d="M120 320.5L720 320.5" fill="none" pointer-events="visible" stroke="#888888" stroke-linecap="round" class="zr0-cls-0"></path>
<text dominant-baseline="central" text-anchor="end" style="font-size:12px;font-family:sans-serif;" transform="translate(112 320)" fill="#888888">0</text>
<text dominant-baseline="central" text-anchor="end" style="font-size:12px;font-family:sans-serif;" transform="translate(112 269)" fill="#888888">300</text>
<text dominant-baseline="central" text-anchor="end" style="font-size:12px;font-family:sans-serif;" transform="translate(112 218)" fill="#888888">600</text>
<text dominant-baseline="central" text-anchor="end" style="font-size:12px;font-family:sans-serif;" transform="translate(112 167)" fill="#888888">900</text>
<text dominant-baseline="central" text-anchor="end" style="font-size:12px;font-family:sans-serif;" transform="translate(112 116)" fill="#888888">1,200</text>
<text dominant-baseline="central" text-anchor="end" style="font-size:12px;font-family:sans-serif;" transform="translate(112 65)" fill="#888888">1,500</text>
<text dominant-baseline="central" text-anchor="middle" style="font-size:12px;font-family:sans-serif;" y="6" transform="translate(147.2727 328)" fill="#888888">Feb</text>
<text dominant-baseline="central" text-anchor="middle" style="font-size:12px;font-family:sans-serif;" y="6" transform="translate(201.8182 328)" fill="#888888">Mar</text>
<text dominant-baseline="central" text-anchor="middle" style="font-size:12px;font-family:sans-serif;" y="6" transform="translate(256.3636 328)" fill="#888888">Apr</text>
<text dominant-baseline="central" text-anchor="middle" style="font-size:12px;font-family:sans-serif;" y="6" transform="translate(310.9091 328)" fill="#888888">May</text>
<text dominant-baseline="central" text-anchor="middle" style="font-size:12px;font-family:sans-serif;" y="6" transform="translate(365.4545 328)" fill="#888888">Jun</text>
<text dominant-baseline="central" text-anchor="middle" style="font-size:12px;font-family:sans-serif;" y="6" transform="translate(420 328)" fill="#888888">Jul</text>
<text dominant-baseline="central" text-anchor="middle" style="font-size:12px;font-family:sans-serif;" y="6" transform="translate(474.5455 328)" fill="#888888">Aug</text>
<text dominant-baseline="central" text-anchor="middle" style="font-size:12px;font-family:sans-serif;" y="6" transform="translate(529.0909 328)" fill="#888888">Sep</text>
<text dominant-baseline="central" text-anchor="middle" style="font-size:12px;font-family:sans-serif;" y="6" transform="translate(583.6364 328)" fill="#888888">Oct</text>
<text dominant-baseline="central" text-anchor="middle" style="font-size:12px;font-family:sans-serif;" y="6" transform="translate(638.1818 328)" fill="#888888">Nov</text>
<text dominant-baseline="central" text-anchor="middle" style="font-size:12px;font-family:sans-serif;" y="6" transform="translate(692.7273 328)" fill="#888888">Dec</text>
<path d="M133.5 257.8L161.1 257.8A5 5 0 0 1 166.1 262.8L166.1 320L128.5 320L128.5 262.8A5 5 0 0 1 133.5 257.8" fill="url(#zr0-g0)" ecmeta_series_index="0" ecmeta_data_index="0" ecmeta_ssr_type="chart" class="zr0-cls-1"></path>
<path d="M188 243.5L215.6 243.5A5 5 0 0 1 220.6 248.5L220.6 320L183 320L183 248.5A5 5 0 0 1 188 243.5" fill="url(#zr0-g0)" ecmeta_series_index="0" ecmeta_data_index="1" ecmeta_ssr_type="chart" class="zr0-cls-1"></path>
<path d="M242.5 158.5L270.2 158.5A5 5 0 0 1 275.2 163.5L275.2 320L237.5 320L237.5 163.5A5 5 0 0 1 242.5 158.5" fill="url(#zr0-g0)" ecmeta_series_index="0" ecmeta_data_index="2" ecmeta_ssr_type="chart" class="zr0-cls-1"></path>
<path d="M297.1 284.1L324.7 284.1A5 5 0 0 1 329.7 289.1L329.7 320L292.1 320L292.1 289.1A5 5 0 0 1 297.1 284.1" fill="url(#zr0-g0)" ecmeta_series_index="0" ecmeta_data_index="3" ecmeta_ssr_type="chart" class="zr0-cls-1"></path>
<path d="M351.6 237.9L379.3 237.9A5 5 0 0 1 384.3 242.9L384.3 320L346.6 320L346.6 242.9A5 5 0 0 1 351.6 237.9" fill="url(#zr0-g0)" ecmeta_series_index="0" ecmeta_data_index="4" ecmeta_ssr_type="chart" class="zr0-cls-1"></path>
<path d="M406.2 280.2L433.8 280.2A5 5 0 0 1 438.8 285.2L438.8 320L401.2 320L401.2 285.2A5 5 0 0 1 406.2 280.2" fill="url(#zr0-g0)" ecmeta_series_index="0" ecmeta_data_index="5" ecmeta_ssr_type="chart" class="zr0-cls-1"></path>
<path d="M460.7 106.1L488.4 106.1A5 5 0 0 1 493.4 111.1L493.4 320L455.7 320L455.7 111.1A5 5 0 0 1 460.7 106.1" fill="url(#zr0-g0)" ecmeta_series_index="0" ecmeta_data_index="6" ecmeta_ssr_type="chart" class="zr0-cls-1"></path>
<path d="M515.3 256.4L542.9 256.4A5 5 0 0 1 547.9 261.4L547.9 320L510.3 320L510.3 261.4A5 5 0 0 1 515.3 256.4" fill="url(#zr0-g0)" ecmeta_series_index="0" ecmeta_data_index="7" ecmeta_ssr_type="chart" class="zr0-cls-1"></path>
<path d="M569.8 294.5L597.5 294.5A5 5 0 0 1 602.5 299.5L602.5 320L564.8 320L564.8 299.5A5 5 0 0 1 569.8 294.5" fill="url(#zr0-g0)" ecmeta_series_index="0" ecmeta_data_index="8" ecmeta_ssr_type="chart" class="zr0-cls-1"></path>
<path d="M624.4 278.7L652 278.7A5 5 0 0 1 657 283.7L657 320L619.4 320L619.4 283.7A5 5 0 0 1 624.4 278.7" fill="url(#zr0-g0)" ecmeta_series_index="0" ecmeta_data_index="9" ecmeta_ssr_type="chart" class="zr0-cls-1"></path>
<path d="M678.9 227L706.5 227A5 5 0 0 1 711.5 232L711.5 320L673.9 320L673.9 232A5 5 0 0 1 678.9 227" fill="url(#zr0-g0)" ecmeta_series_index="0" ecmeta_data_index="10" ecmeta_ssr_type="chart" class="zr0-cls-1"></path>
<path d="M-79.2 -5l158.5 0l0 28l-158.5 0Z" transform="translate(400 20)" fill="rgb(0,0,0)" fill-opacity="0" stroke="#3c3c41" stroke-width="0" class="zr0-cls-0"></path>
<text dominant-baseline="central" text-anchor="middle" style="font-size:18px;font-family:sans-serif;font-weight:bold;" xml:space="preserve" y="9" transform="translate(400 20)" fill="#888888">Most Active Month</text>
<defs >
<linearGradient gradientUnits="objectBoundingBox" x1="0" y1="0" x2="0" y2="1" id="zr0-g0">
<stop offset="0%" stop-color="#ff9e44"></stop>
<stop offset="100%" stop-color="#ff4683"></stop>
</linearGradient>
</defs>
<style ><![CDATA[
.zr0-cls-0:hover {
pointer-events:none;
}
.zr0-cls-1:hover {
cursor:pointer;
fill:[object Object];
}

]]>

</style>
</svg>