<svg class="w-full h-auto" width="800" height="500" xmlns="http://www.w3.org/2000/svg" xmlns:xlink="http://www.w3.org/1999/xlink" version="1.1" baseProfile="full" viewBox="0 0 800 500">
<rect width="800" height="500" x="0" y="0" fill="none"></rect>
<path d="M68.5 65L68.5 465" fill="none" pointer-events="visible" stroke="#888888" stroke-opacity="0.2" class="zr3-cls-6"></path>
<path d="M155.5 65L155.5 465" fill="none" pointer-events="visible" stroke="#888888" stroke-opacity="0.2" class="zr3-cls-6"></path>
<path d="M243.5 65L243.5 465" fill="none" pointer-events="visible" stroke="#888888" stroke-opacity="0.2" class="zr3-cls-6"></path>
<path d="M330.5 65L330.5 465" fill="none" pointer-events="visible" stroke="#888888" stroke-opacity="0.2" class="zr3-cls-6"></path>
<path d="M418.5 65L418.5 465" fill="none" pointer-events="visible" stroke="#888888" stroke-opacity="0.2" class="zr3-cls-6"></path>
<path d="M505.5 65L505.5 465" fill="none" pointer-events="visible" stroke="#888888" stroke-opacity="0.2" class="zr3-cls-6"></path>
<path d="M593.5 65L593.5 465" fill="none" pointer-events="visible" stroke="#888888" stroke-opacity="0.2" class="zr3-cls-6"></path>
<path d="M680.5 65L680.5 465" fill="none" pointer-events="visible" stroke="#888888" stroke-opacity="0.2" class="zr3-cls-6"></path>
<path d="M768.5 65L768.5 465" fill="none" pointer-events="visible" stroke="#888888" stroke-opacity="0.2" class="zr3-cls-6"></path>
<path d="M68.5 465L68.5 65" fill="none" pointer-events="visible" stroke="#888888" stroke-linecap="round" class="zr3-cls-6"></path>
<text dominant-baseline="central" text-anchor="start" style="font-size:12px;font-family:sans-serif;" transform="translate(783 465)" fill="#888888">Count</text>
<text dominant-baseline="central" text-anchor="end" style="font-size:12px;font-family:sans-serif;" transform="translate(60.12 445)" fill="#888888">chmod</text>
<text dominant-baseline="central" text-anchor="end" style="font-size:12px;font-family:sans-serif;" transform="translate(60.12 405)" fill="#888888">pnpm</text>
<text dominant-baseline="central" text-anchor="end" style="font-size:12px;font-family:sans-serif;" transform="translate(60.12 365)" fill="#888888">npm</text>
<text dominant-baseline="central" text-anchor="end" style="font-size:12px;font-family:sans-serif;" transform="translate(60.12 325)" fill="#888888">pwd</text>
<text dominant-baseline="central" text-anchor="end" style="font-size:12px;font-family:sans-serif;" transform="translate(60.12 285)" fill="#888888">flutter</text>
<text dominant-baseline="central" text-anchor="end" style="font-size:12px;font-family:sans-serif;" transform="translate(60.12 245)" fill="#888888">fvm</text>
<text dominant-baseline="central" text-anchor="end" style="font-size:12px;font-family:sans-serif;" transform="translate(60.12 205)" fill="#888888">adb</text>
<text dominant-baseline="central" text-anchor="end" style="font-size:12px;font-family:sans-serif;" transform="translate(60.12 165)" fill="#888888">cd</text>
<text dominant-baseline="central" text-anchor="end" style="font-size:12px;font-family:sans-serif;" transform="translate(60.12 125)" fill="#888888">ls</text>
<text dominant-baseline="central" text-anchor="end" style="font-size:12px;font-family:sans-serif;" transform="translate(60.12 85)" fill="#888888">git</text>
<text dominant-baseline="central" text-anchor="middle" style="font-size:12px;font-family:sans-serif;" y="6" transform="translate(68.12 473)" fill="#888888">0</text>
<text dominant-baseline="central" text-anchor="middle" style="font-size:12px;font-family:sans-serif;" y="6" transform="translate(155.605 473)" fill="#888888">100</text>
<text dominant-baseline="central" text-anchor="middle" style="font-size:12px;font-family:sans-serif;" y="6" transform="translate(243.09 473)" fill="#888888">200</text>
<text dominant-baseline="central" text-anchor="middle" style="font-size:12px;font-family:sans-serif;" y="6" transform="translate(330.575 473)" fill="#888888">300</text>
<text dominant-baseline="central" text-anchor="middle" style="font-size:12px;font-family:sans-serif;" y="6" transform="translate(418.06 473)" fill="#888888">400</text>
<text dominant-baseline="central" text-anchor="middle" style="font-size:12px;font-family:sans-serif;" y="6" transform="translate(505.545 473)" fill="#888888">500</text>
<text dominant-baseline="central" text-anchor="middle" style="font-size:12px;font-family:sans-serif;" y="6" transform="translate(593.03 473)" fill="#888888">600</text>
<text dominant-baseline="central" text-anchor="middle" style="font-size:12px;font-family:sans-serif;" y="6" transform="translate(680.515 473)" fill="#888888">700</text>
<text dominant-baseline="central" text-anchor="middle" style="font-size:12px;font-family:sans-serif;" y="6" transform="translate(768 473)" fill="#888888">800</text>
<path d="M68.1 431.2L142.7 431.2A5 5 0 0 1 147.7 436.2L147.7 453.8A5 5 0 0 1 142.7 458.8L68.1 458.8L68.1 431.2" fill="url(#zr3-g0)" ecmeta_series_index="0" ecmeta_data_index="0" ecmeta_ssr_type="chart" class="zr3-cls-7"></path>
<path d="M68.1 391.2L184.7 391.2A5 5 0 0 1 189.7 396.2L189.7 413.8A5 5 0 0 1 184.7 418.8L68.1 418.8L68.1 391.2" fill="url(#zr3-g0)" ecmeta_series_index="0" ecmeta_data_index="1" ecmeta_ssr_type="chart" class="zr3-cls-7"></path>
<path d="M68.1 351.2L200.5 351.2A5 5 0 0 1 205.5 356.2L205.5 373.8A5 5 0 0 1 200.5 378.8L68.1 378.8L68.1 351.2" fill="url(#zr3-g0)" ecmeta_series_index="0" ecmeta_data_index="2" ecmeta_ssr_type="chart" class="zr3-cls-7"></path>
<path d="M68.1 311.2L250.3 311.2A5 5 0 0 1 255.3 316.2L255.3 333.8A5 5 0 0 1 250.3 338.8L68.1 338.8L68.1 311.2" fill="url(#zr3-g0)" ecmeta_series_index="0" ecmeta_data_index="3" ecmeta_ssr_type="chart" class="zr3-cls-7"></path>
<path d="M68.1 271.2L314.2 271.2A5 5 0 0 1 319.2 276.2L319.2 293.8A5 5 0 0 1 314.2 298.8L68.1 298.8L68.1 271.2" fill="url(#zr3-g0)" ecmeta_series_index="0" ecmeta_data_index="4" ecmeta_ssr_type="chart" class="zr3-cls-7"></path>
<path d="M68.1 231.2L316.8 231.2A5 5 0 0 1 321.8 236.2L321.8 253.8A5 5 0 0 1 316.8 258.8L68.1 258.8L68.1 231.2" fill="url(#zr3-g0)" ecmeta_series_index="0" ecmeta_data_index="5" ecmeta_ssr_type="chart" class="zr3-cls-7"></path>
<path d="M68.1 191.2L398.2 191.2A5 5 0 0 1 403.2 196.2L403.2 213.8A5 5 0 0 1 398.2 218.8L68.1 218.8L68.1 191.2" fill="url(#zr3-g0)" ecmeta_series_index="0" ecmeta_data_index="6" ecmeta_ssr_type="chart" class="zr3-cls-7"></path>
<path d="M68.1 151.2L544.3 151.2A5 5 0 0 1 549.3 156.2L549.3 173.8A5 5 0 0 1 544.3 178.8L68.1 178.8L68.1 151.2" fill="url(#zr3-g0)" ecmeta_series_index="0" ecmeta_data_index="7" ecmeta_ssr_type="chart" class="zr3-cls-7"></path>
<path d="M68.1 111.2L630.9 111.2A5 5 0 0 1 635.9 116.2L635.9 133.8A5 5 0 0 1 630.9 138.8L68.1 138.8L68.1 111.2" fill="url(#zr3-g0)" ecmeta_series_index="0" ecmeta_data_index="8" ecmeta_ssr_type="chart" class="zr3-cls-7"></path>
<path d="M68.1 71.2L693.9 71.2A5 5 0 0 1 698.9 76.2L698.9 93.8A5 5 0 0 1 693.9 98.8L68.1 98.8L68.1 71.2" fill="url(#zr3-g0)" ecmeta_series_index="0" ecmeta_data_index="9" ecmeta_ssr_type="chart" class="zr3-cls-7"></path>
<path d="M-86.2 -5l172.4 0l0 28l-172.4 0Z" transform="translate(400 20)" fill="rgb(0,0,0)" fill-opacity="0" stroke="#3c3c41" stroke-width="0" class="zr3-cls-6"></path>
<text dominant-baseline="central" text-anchor="middle" style="font-size:18px;font-family:sans-serif;font-weight:bold;" xml:space="preserve" y="9" transform="translate(400 20)" fill="#888888">Favorite Commands</text>
<defs >
<linearGradient gradientUnits="objectBoundingBox" x1="1" y1="0" x2="0" y2="0" id="zr3-g0">
<stop offset="0%" stop-color="#fac858"></stop>
<stop offset="100%" stop-color="#ee6666"></stop>
</linearGradient>
</defs>
<style ><![CDATA[
.zr3-cls-6:hover {
pointer-events:none;
}
.zr3-cls-7:hover {
cursor:pointer;
fill:[object Object];
}

]]>

</style>
</svg>